<svg xmlns="http://www.w3.org/2000/svg" width="256" height="256" viewBox="0 0 256 256" fill="none">
  <defs>
    <linearGradient id="g" x1="32" y1="24" x2="224" y2="232" gradientUnits="userSpaceOnUse">
      <stop stop-color="#FFFFFF" stop-opacity="0.95"/>
      <stop offset="1" stop-color="#FFFFFF" stop-opacity="0.55"/>
    </linearGradient>
  </defs>
  <rect x="16" y="16" width="224" height="224" rx="56" fill="rgba(255,255,255,0.06)" stroke="rgba(255,255,255,0.25)"/>
  <path d="M128 44c18 18 18 46 0 64-18-18-18-46 0-64Z" fill="url(#g)"/>
  <path d="M128 212c-18-18-18-46 0-64 18 18 18 46 0 64Z" fill="url(#g)"/>
  <path d="M44 128c18-18 46-18 64 0-18 18-46 18-64 0Z" fill="url(#g)"/>
  <path d="M212 128c-18 18-46 18-64 0 18-18 46-18 64 0Z" fill="url(#g)"/>
  <circle cx="128" cy="128" r="18" fill="rgba(255,255,255,0.9)"/>
</svg>
